<?xml version="1.0" standalone="no"?>
<!DOCTYPE svg PUBLIC "-//W3C//DTD SVG 20010904//EN"
 "http://www.w3.org/TR/2001/REC-SVG-20010904/DTD/svg10.dtd">
<svg version="1.0" xmlns="http://www.w3.org/2000/svg"
 width="1920.000000pt" height="1080.000000pt" viewBox="0 0 1920.000000 1080.000000"
 preserveAspectRatio="xMidYMid meet">
<metadata>
Created by potrace 1.16, written by Peter Selinger 2001-2019
</metadata>
<g transform="translate(0.000000,1080.000000) scale(0.100000,-0.100000)"
fill="#000000" stroke="none">
<path d="M0 2789 l0 -2378 33 5 c89 15 333 80 427 114 659 236 1181 717 1434
1323 64 151 93 249 132 442 73 360 65 676 -27 1032 -80 312 -254 653 -469 919
-85 105 -275 294 -380 378 -114 92 -311 221 -440 289 -181 96 -447 195 -647
241 l-63 14 0 -2379z"/>
</g>
</svg>
